<svg className="logo--svg" xmlns="http://www.w3.org/2000/svg" xmlns:xlink="http://www.w3.org/1999/xlink" width="940" zoomAndPan="magnify" viewBox="0 0 705 135.000003" height="180" preserveAspectRatio="xMidYMid meet" version="1.0"><defs><g/></defs><g fill="#000000" fill-opacity="1"><g transform="translate(12.41874, 100.864845)"><g><path d="M 6.671875 0 L 6.671875 -57.0625 L 26.359375 -57.0625 L 26.359375 -51.0625 L 26.578125 -51.0625 C 31.703125 -56.175781 37.15625 -58.734375 42.9375 -58.734375 C 47.09375 -58.734375 50.984375 -57.878906 54.609375 -56.171875 C 58.242188 -54.460938 60.988281 -51.832031 62.84375 -48.28125 C 68.632812 -55.25 74.9375 -58.734375 81.75 -58.734375 C 87.832031 -58.734375 93.0625 -57.023438 97.4375 -53.609375 C 101.8125 -50.203125 104 -44.863281 104 -37.59375 L 104 0 L 84.3125 0 L 84.3125 -32.265625 C 84.3125 -35.296875 83.476562 -37.832031 81.8125 -39.875 C 80.144531 -41.914062 77.640625 -42.9375 74.296875 -42.9375 C 71.410156 -42.9375 69.207031 -42.0625 67.6875 -40.3125 C 66.164062 -38.570312 65.332031 -36.476562 65.1875 -34.03125 L 65.1875 0 L 45.5 0 L 45.5 -32.265625 C 45.5 -35.296875 44.660156 -37.832031 42.984375 -39.875 C 41.316406 -41.914062 38.816406 -42.9375 35.484375 -42.9375 C 32.441406 -42.9375 30.160156 -41.988281 28.640625 -40.09375 C 27.117188 -38.207031 26.359375 -35.96875 26.359375 -33.375 L 26.359375 0 Z M 6.671875 0 "/></g></g></g><g fill="#000000" fill-opacity="1"><g transform="translate(111.507824, 100.864845)"><g><path d="M 12.0625 -6.78125 C 5.726562 -12.414062 2.5625 -19.644531 2.5625 -28.46875 C 2.5625 -37.300781 5.859375 -44.550781 12.453125 -50.21875 C 19.054688 -55.894531 27.21875 -58.734375 36.9375 -58.734375 C 46.5 -58.734375 54.5625 -55.878906 61.125 -50.171875 C 67.6875 -44.460938 70.96875 -37.226562 70.96875 -28.46875 C 70.96875 -19.71875 67.757812 -12.503906 61.34375 -6.828125 C 54.925781 -1.160156 46.789062 1.671875 36.9375 1.671875 C 26.695312 1.671875 18.40625 -1.144531 12.0625 -6.78125 Z M 27.296875 -38.15625 C 24.742188 -35.632812 23.46875 -32.40625 23.46875 -28.46875 C 23.46875 -24.539062 24.691406 -21.332031 27.140625 -18.84375 C 29.585938 -16.363281 32.8125 -15.125 36.8125 -15.125 C 40.675781 -15.125 43.847656 -16.382812 46.328125 -18.90625 C 48.816406 -21.425781 50.0625 -24.613281 50.0625 -28.46875 C 50.0625 -32.40625 48.78125 -35.632812 46.21875 -38.15625 C 43.65625 -40.675781 40.519531 -41.9375 36.8125 -41.9375 C 33.03125 -41.9375 29.859375 -40.675781 27.296875 -38.15625 Z M 27.296875 -38.15625 "/></g></g></g><g fill="#000000" fill-opacity="1"><g transform="translate(174.56341, 100.864845)"><g><path d="M 6.671875 0 L 6.671875 -57.0625 L 26.359375 -57.0625 L 26.359375 -51.0625 L 26.578125 -51.0625 C 31.703125 -56.175781 37.15625 -58.734375 42.9375 -58.734375 C 47.09375 -58.734375 50.984375 -57.878906 54.609375 -56.171875 C 58.242188 -54.460938 60.988281 -51.832031 62.84375 -48.28125 C 68.632812 -55.25 74.9375 -58.734375 81.75 -58.734375 C 87.832031 -58.734375 93.0625 -57.023438 97.4375 -53.609375 C 101.8125 -50.203125 104 -44.863281 104 -37.59375 L 104 0 L 84.3125 0 L 84.3125 -32.265625 C 84.3125 -35.296875 83.476562 -37.832031 81.8125 -39.875 C 80.144531 -41.914062 77.640625 -42.9375 74.296875 -42.9375 C 71.410156 -42.9375 69.207031 -42.0625 67.6875 -40.3125 C 66.164062 -38.570312 65.332031 -36.476562 65.1875 -34.03125 L 65.1875 0 L 45.5 0 L 45.5 -32.265625 C 45.5 -35.296875 44.660156 -37.832031 42.984375 -39.875 C 41.316406 -41.914062 38.816406 -42.9375 35.484375 -42.9375 C 32.441406 -42.9375 30.160156 -41.988281 28.640625 -40.09375 C 27.117188 -38.207031 26.359375 -35.96875 26.359375 -33.375 L 26.359375 0 Z M 6.671875 0 "/></g></g></g><g fill="#000000" fill-opacity="1"><g transform="translate(273.652481, 100.864845)"><g><path d="M 64.40625 -25.8125 L 23.03125 -25.8125 C 23.03125 -21.800781 24.328125 -18.832031 26.921875 -16.90625 C 29.515625 -14.976562 32.332031 -14.015625 35.375 -14.015625 C 38.5625 -14.015625 41.082031 -14.441406 42.9375 -15.296875 C 44.789062 -16.148438 46.90625 -17.835938 49.28125 -20.359375 L 63.515625 -13.234375 C 57.578125 -3.296875 47.710938 1.671875 33.921875 1.671875 C 25.316406 1.671875 17.9375 -1.273438 11.78125 -7.171875 C 5.632812 -13.066406 2.5625 -20.164062 2.5625 -28.46875 C 2.5625 -36.78125 5.632812 -43.898438 11.78125 -49.828125 C 17.9375 -55.765625 25.316406 -58.734375 33.921875 -58.734375 C 42.972656 -58.734375 50.332031 -56.117188 56 -50.890625 C 61.675781 -45.660156 64.515625 -38.1875 64.515625 -28.46875 C 64.515625 -27.132812 64.476562 -26.25 64.40625 -25.8125 Z M 23.578125 -36.703125 L 45.265625 -36.703125 C 44.828125 -39.671875 43.660156 -41.953125 41.765625 -43.546875 C 39.878906 -45.140625 37.453125 -45.9375 34.484375 -45.9375 C 31.222656 -45.9375 28.625 -45.082031 26.6875 -43.375 C 24.757812 -41.675781 23.722656 -39.453125 23.578125 -36.703125 Z M 23.578125 -36.703125 "/></g></g></g><g fill="#000000" fill-opacity="1"><g transform="translate(330.257633, 100.864845)"><g><path d="M 6.671875 0 L 6.671875 -57.0625 L 26.359375 -57.0625 L 26.359375 -51.0625 L 26.578125 -51.0625 C 31.703125 -56.175781 37.15625 -58.734375 42.9375 -58.734375 C 45.75 -58.734375 48.546875 -58.359375 51.328125 -57.609375 C 54.109375 -56.867188 56.78125 -55.71875 59.34375 -54.15625 C 61.90625 -52.601562 63.984375 -50.398438 65.578125 -47.546875 C 67.171875 -44.691406 67.96875 -41.375 67.96875 -37.59375 L 67.96875 0 L 48.28125 0 L 48.28125 -32.265625 C 48.28125 -35.222656 47.332031 -37.8125 45.4375 -40.03125 C 43.550781 -42.257812 41.085938 -43.375 38.046875 -43.375 C 35.078125 -43.375 32.382812 -42.222656 29.96875 -39.921875 C 27.5625 -37.628906 26.359375 -35.078125 26.359375 -32.265625 L 26.359375 0 Z M 6.671875 0 "/></g></g></g><g fill="#000000" fill-opacity="1"><g transform="translate(393.313233, 100.864845)"><g><path d="M 10.015625 -57.0625 L 10.015625 -78.3125 L 29.703125 -78.3125 L 29.703125 -57.0625 L 41.71875 -57.0625 L 41.71875 -42.046875 L 29.703125 -42.046875 L 29.703125 -23.921875 C 29.703125 -18.648438 31.1875 -16.015625 34.15625 -16.015625 C 34.894531 -16.015625 35.671875 -16.160156 36.484375 -16.453125 C 37.296875 -16.753906 37.925781 -17.054688 38.375 -17.359375 L 39.046875 -17.796875 L 43.9375 -1.890625 C 39.707031 0.484375 34.890625 1.671875 29.484375 1.671875 C 25.773438 1.671875 22.582031 1.023438 19.90625 -0.265625 C 17.238281 -1.566406 15.21875 -3.3125 13.84375 -5.5 C 12.476562 -7.6875 11.5 -9.984375 10.90625 -12.390625 C 10.3125 -14.804688 10.015625 -17.390625 10.015625 -20.140625 L 10.015625 -42.046875 L 1.78125 -42.046875 L 1.78125 -57.0625 Z M 10.015625 -57.0625 "/></g></g></g><g fill="#000000" fill-opacity="1"><g transform="translate(426.785733, 100.864845)"><g><path d="M 40.484375 -93.4375 C 45.453125 -93.4375 50.3125 -92.710938 55.0625 -91.265625 C 59.8125 -89.816406 63.332031 -88.390625 65.625 -86.984375 L 68.96875 -84.765625 L 60.515625 -68.078125 C 59.847656 -68.523438 58.921875 -69.097656 57.734375 -69.796875 C 56.546875 -70.503906 54.316406 -71.453125 51.046875 -72.640625 C 47.785156 -73.828125 44.75 -74.421875 41.9375 -74.421875 C 38.445312 -74.421875 35.753906 -73.675781 33.859375 -72.1875 C 31.972656 -70.707031 31.03125 -68.707031 31.03125 -66.1875 C 31.03125 -64.925781 31.472656 -63.753906 32.359375 -62.671875 C 33.253906 -61.597656 34.773438 -60.445312 36.921875 -59.21875 C 39.078125 -58 40.96875 -57.019531 42.59375 -56.28125 C 44.226562 -55.539062 46.753906 -54.429688 50.171875 -52.953125 C 56.097656 -50.429688 61.15625 -47 65.34375 -42.65625 C 69.539062 -38.320312 71.640625 -33.410156 71.640625 -27.921875 C 71.640625 -22.648438 70.691406 -18.050781 68.796875 -14.125 C 66.910156 -10.195312 64.316406 -7.117188 61.015625 -4.890625 C 57.710938 -2.671875 54.054688 -1.023438 50.046875 0.046875 C 46.046875 1.128906 41.710938 1.671875 37.046875 1.671875 C 33.035156 1.671875 29.101562 1.257812 25.25 0.4375 C 21.394531 -0.375 18.164062 -1.390625 15.5625 -2.609375 C 12.96875 -3.835938 10.632812 -5.046875 8.5625 -6.234375 C 6.488281 -7.421875 4.96875 -8.421875 4 -9.234375 L 2.5625 -10.453125 L 13.015625 -28.03125 C 13.898438 -27.289062 15.117188 -26.34375 16.671875 -25.1875 C 18.234375 -24.039062 21 -22.503906 24.96875 -20.578125 C 28.9375 -18.648438 32.441406 -17.6875 35.484375 -17.6875 C 44.304688 -17.6875 48.71875 -20.691406 48.71875 -26.703125 C 48.71875 -27.960938 48.398438 -29.128906 47.765625 -30.203125 C 47.140625 -31.273438 46.03125 -32.347656 44.4375 -33.421875 C 42.84375 -34.492188 41.429688 -35.347656 40.203125 -35.984375 C 38.984375 -36.617188 36.984375 -37.582031 34.203125 -38.875 C 31.421875 -40.175781 29.363281 -41.160156 28.03125 -41.828125 C 22.46875 -44.566406 18.164062 -47.992188 15.125 -52.109375 C 12.082031 -56.222656 10.5625 -60.65625 10.5625 -65.40625 C 10.5625 -73.632812 13.601562 -80.363281 19.6875 -85.59375 C 25.769531 -90.820312 32.703125 -93.4375 40.484375 -93.4375 Z M 40.484375 -93.4375 "/></g></g></g><g fill="#000000" fill-opacity="1"><g transform="translate(491.06468, 100.864845)"><g><path d="M 6.671875 0 L 6.671875 -57.0625 L 26.359375 -57.0625 L 26.359375 -51.0625 L 26.578125 -51.0625 C 31.703125 -56.175781 37.15625 -58.734375 42.9375 -58.734375 C 45.75 -58.734375 48.546875 -58.359375 51.328125 -57.609375 C 54.109375 -56.867188 56.78125 -55.71875 59.34375 -54.15625 C 61.90625 -52.601562 63.984375 -50.398438 65.578125 -47.546875 C 67.171875 -44.691406 67.96875 -41.375 67.96875 -37.59375 L 67.96875 0 L 48.28125 0 L 48.28125 -32.265625 C 48.28125 -35.222656 47.332031 -37.8125 45.4375 -40.03125 C 43.550781 -42.257812 41.085938 -43.375 38.046875 -43.375 C 35.078125 -43.375 32.382812 -42.222656 29.96875 -39.921875 C 27.5625 -37.628906 26.359375 -35.078125 26.359375 -32.265625 L 26.359375 0 Z M 6.671875 0 "/></g></g></g><g fill="#000000" fill-opacity="1"><g transform="translate(554.120279, 100.864845)"><g><path d="M 10.5625 -7.0625 C 5.226562 -12.882812 2.5625 -20.019531 2.5625 -28.46875 C 2.5625 -36.925781 5.226562 -44.082031 10.5625 -49.9375 C 15.90625 -55.800781 22.691406 -58.734375 30.921875 -58.734375 C 38.484375 -58.734375 44.710938 -56.359375 49.609375 -51.609375 L 49.609375 -57.0625 L 69.296875 -57.0625 L 69.296875 0 L 49.828125 0 L 49.828125 -6.453125 L 49.609375 -6.453125 C 44.710938 -1.035156 38.484375 1.671875 30.921875 1.671875 C 22.691406 1.671875 15.90625 -1.238281 10.5625 -7.0625 Z M 27.296875 -38.15625 C 24.742188 -35.632812 23.46875 -32.40625 23.46875 -28.46875 C 23.46875 -24.539062 24.691406 -21.332031 27.140625 -18.84375 C 29.585938 -16.363281 32.8125 -15.125 36.8125 -15.125 C 40.675781 -15.125 43.847656 -16.382812 46.328125 -18.90625 C 48.816406 -21.425781 50.0625 -24.613281 50.0625 -28.46875 C 50.0625 -32.40625 48.78125 -35.632812 46.21875 -38.15625 C 43.65625 -40.675781 40.519531 -41.9375 36.8125 -41.9375 C 33.03125 -41.9375 29.859375 -40.675781 27.296875 -38.15625 Z M 27.296875 -38.15625 "/></g></g></g><g fill="#000000" fill-opacity="1"><g transform="translate(619.622575, 100.864845)"><g><path d="M 65.40625 -50 C 70.75 -44.175781 73.421875 -37.035156 73.421875 -28.578125 C 73.421875 -20.128906 70.75 -12.972656 65.40625 -7.109375 C 60.0625 -1.253906 53.273438 1.671875 45.046875 1.671875 C 37.484375 1.671875 31.253906 -0.703125 26.359375 -5.453125 L 26.359375 28.921875 L 6.671875 28.921875 L 6.671875 -57.0625 L 26.140625 -57.0625 L 26.140625 -50.609375 L 26.359375 -50.609375 C 31.253906 -56.023438 37.484375 -58.734375 45.046875 -58.734375 C 53.273438 -58.734375 60.0625 -55.820312 65.40625 -50 Z M 48.65625 -18.90625 C 51.21875 -21.425781 52.5 -24.648438 52.5 -28.578125 C 52.5 -32.515625 51.273438 -35.722656 48.828125 -38.203125 C 46.378906 -40.691406 43.15625 -41.9375 39.15625 -41.9375 C 35.300781 -41.9375 32.128906 -40.675781 29.640625 -38.15625 C 27.160156 -35.632812 25.921875 -32.445312 25.921875 -28.59375 C 25.921875 -24.65625 27.195312 -21.425781 29.75 -18.90625 C 32.3125 -16.382812 35.445312 -15.125 39.15625 -15.125 C 42.9375 -15.125 46.101562 -16.382812 48.65625 -18.90625 Z M 48.65625 -18.90625 "/></g></g></g></svg>
